<svg width="50" height="50" viewBox="0 0 50 50" fill="none" xmlns="http://www.w3.org/2000/svg">
  <!-- Body -->
  <path
    d="M25 40c-5.523 0-10-4.477-10-10s4.477-10 10-10 10 4.477 10 10-4.477 10-10 10z"
    fill="#ff0000"
    stroke="#ff0000"
    stroke-width="2"
    stroke-linecap="round"
  />
  
  <!-- Left Ear -->
  <path
    d="M17 22c-3-5-3-15-3-15s7 2 9 7"
    fill="#ff0000"
    stroke="#ff0000"
    stroke-width="2"
    stroke-linecap="round"
  />
  
  <!-- Right Ear -->
  <path
    d="M33 22c3-5 3-15 3-15s-7 2-9 7"
    fill="#ff0000"
    stroke="#ff0000"
    stroke-width="2"
    stroke-linecap="round"
  />
  
  <!-- Eyes -->
  <circle
    cx="20"
    cy="28"
    r="1.5"
    fill="#000"
    stroke="#000"
    stroke-width="1"
  />
  
  <circle
    cx="30"
    cy="28"
    r="1.5"
    fill="#000"
    stroke="#000"
    stroke-width="1"
  />
  
  <!-- Nose -->
  <path
    d="M25 30a2 2 0 100 4 2 2 0 000-4z"
    fill="#000"
    stroke="#000"
    stroke-width="1"
  />
  
  <!-- Whiskers -->
  <path
    d="M23 33l-8 2M23 34l-8 0M23 35l-8-2"
    stroke="#000"
    stroke-width="0.5"
  />
  
  <path
    d="M27 33l8 2M27 34l8 0M27 35l8-2"
    stroke="#000"
    stroke-width="0.5"
  />
</svg>